/* XPM */
static char *_2d062c60a4640e1e27df0102ca27d82g8ChKwAnQQmdVnee[] = {
/* columns rows colors chars-per-pixel */
"64 64 11 1 ",
"  c None",
". c #101010",
"X c #686868",
"o c #C83800",
"O c #F83000",
"+ c #805018",
"@ c #C86000",
"# c #E89800",
"$ c #F0C820",
"% c #F8E030",
"& c #F8F8F8",
/* pixels */
"                                                                ",
"                                                                ",
"                                                                ",
"                                                                ",
"                                                                ",
"                                                                ",
"                                                                ",
"                                                                ",
"                                                 ..             ",
"                                                ...             ",
"                                               .X..             ",
"                                              .XX..             ",
"                                             .XX...             ",
"                                             .XX...             ",
"                                            +%X....             ",
"           .....                           @%%$...              ",
"           .XXXX...                        @%%$...              ",
"            ..XXXXX++@                    @%%$$$..              ",
"            .....XX%%%#@@                 #%%$$$+.              ",
"             ......%%%%%%@@              @%%$$$$.               ",
"               ....$$$%%%%%#@            #%%$$$$.               ",
"                ...$$$$$$$$$#@          +%%$$$$+                ",
"                  +$$$$$$$$$$$++        @%%$$$#.                ",
"                   +.$$$$$$$$$$$@+.... +%%$$$$#.                ",
"                     ..$$$$$$@@%%%%%%$@@%$$$$#+                 ",
"                       ..$$@@$%%%%%%%%$$$$$$##.                 ",
"                         .+$%$%%%%%%%$$$$$$##+                  ",
"                         +$%$%%%%%%%$$$$$$$##.                  ",
"     @##                +$%$%$%%%%$$$$$$$$$$##+                 ",
"     @%%#@@             #%$%$%$%$$$$$$$$$$$$$$.                 ",
"     @%%%%%@@@         @%$%$%$%$$$$$$$$$$$$$$$&.                ",
"     @%%%%$$$$@@@      #$$$$$%$$$$$$$$$$$$$$$$..                ",
"      #%%%$$$$$$$@@@  +$$$$$$$$$$$$$$$$$$$$$$$$..               ",
"      @%%$$$$$$$$$$$@@@$$$$$$$$$$$$$$$$$$$$$$$$#.               ",
"      @%%$$$$$$$$$$$$$$+.$$$$$$$$$$$$$$$$$$$$$$$#+              ",
"       #%$$$$$$$$$$$$$$$$+.$$$$$$$$$$$$$$$$$$$$#O.              ",
"       @%$$$$$$$$$$$$$$$$$$.$$$$$$$$$$$$$$$$$$$OO.              ",
"       @%$$$$$$$$$$$$$$$$$$.$$$$$$$$$$$$$$$$$$#oO.              ",
"       @%$$$$$$$$$$$$$$$$$$.$$$$$$$$$$$$$$$$$$#oo               ",
"        #%$$$$$$$$$$$$$$$$+$$$$$$$$$$$$$$$$$$$oo.               ",
"        @%$$$$$$$$$$$$$$$$.$$$$$$$$$$$$$$$$$$@o.                ",
"        @%$$$$$$$$$$$$$$$$.$$$$$$$$$$$$$$$$$$$+                 ",
"        +.........+##$$$$+$$$$$$$$$$$$$$$$$$$$$++   +           ",
"                   ++$$$$.@+@+++++@@$$$$$$$$$$$$$+++$@@         ",
"                   +%$$$+@+@++++++++++@$$$$$$$$$$$$$#$$@        ",
"                  +%$##$.+@++++++++++++@#$$$$$$$$$$$$$+         ",
"                  +%###+@@+@+++++++++@@$$$$$$$$$$$$$$$$+        ",
"                 +%$###++....$$$$$$$$$$$$$$$$$$$$$$$$$@         ",
"                 +%#########.$$$$$$$$$$$$$$$$######$$$+         ",
"                +%$########.$$$$$$$$$$$$$$$$##.#####+.          ",
"                +.....+#@@.$$$$$$$$$$$$$$$$###......            ",
"                   +$.@@@.+++++++@@$$$$$$#####.                 ",
"                   @.+++.+++++++++++@$$#######.                 ",
"                   .+++.+++++++++++++@########.                 ",
"                  ++++++.++++++++++@@#########+                 ",
"                  +..++++.$$###################.                ",
"                  +##..+++.####################.                ",
"                                                                ",
"                                                                ",
"                                                                ",
"                                                                ",
"                                                                ",
"                                                                ",
"                                                                "
};
